<svg xmlns="http://www.w3.org/2000/svg" width="1200" height="630" viewBox="0 0 1200 630">
  <rect width="1200" height="630" fill="#0c0d10"/>
  <g stroke="#27282e" stroke-width="1"><path d="M0 90h1200M0 180h1200M0 270h1200M0 360h1200M0 450h1200M0 540h1200"/><path d="M100 0v630M200 0v630M300 0v630M400 0v630M500 0v630M600 0v630M700 0v630M800 0v630M900 0v630M1000 0v630M1100 0v630"/></g>
  <rect x="84" y="78" width="66" height="66" rx="16" fill="#efefeb"/>
  <path d="m101 98 13 13-13 13m23 0h13" fill="none" stroke="#141518" stroke-linecap="round" stroke-linejoin="round" stroke-width="5"/>
  <text x="170" y="122" fill="#efefeb" font-family="Arial, sans-serif" font-size="30" font-weight="700">VisualnsCode</text>
  <text x="84" y="285" fill="#efefeb" font-family="Arial, sans-serif" font-size="76" font-weight="700" letter-spacing="-3">Build with every AI.</text>
  <text x="84" y="376" fill="#8280ff" font-family="Arial, sans-serif" font-size="76" font-weight="700" letter-spacing="-3">Manage everything</text>
  <text x="84" y="465" fill="#efefeb" font-family="Arial, sans-serif" font-size="76" font-weight="700" letter-spacing="-3">from one place.</text>
  <text x="86" y="552" fill="#a4a5ad" font-family="monospace" font-size="20">OPEN SOURCE  ·  DESKTOP  ·  AGENTS  ·  LOCAL MODELS</text>
</svg>
